<svg xmlns="http://www.w3.org/2000/svg" xmlns:xlink="http://www.w3.org/1999/xlink" width="500" zoomAndPan="magnify" viewBox="0 0 375 374.999991" height="500" preserveAspectRatio="xMidYMid meet" version="1.0"><defs><g/></defs><path stroke-linecap="butt" transform="matrix(1.060643, 0, 0, 1.060643, 88.863279, 137.119429)" fill="none" stroke-linejoin="miter" d="M 22.845068 61.664466 C 19.567282 58.088364 17.924705 53.702023 17.924705 48.512808 C 17.924705 43.323594 19.567282 38.93357 22.845068 35.342736 C 26.122854 31.744537 30.288221 29.943596 35.344851 29.943596 C 39.98163 29.943596 43.804486 31.398344 46.817103 34.311523 L 46.817103 30.97481 L 58.900718 30.97481 L 58.900718 65.999246 L 46.949688 65.999246 L 46.949688 62.032756 L 46.817103 62.032756 C 43.804486 65.354738 39.98163 67.015728 35.344851 67.015728 C 30.288221 67.015728 26.122854 65.233202 22.845068 61.664466 Z M 33.11301 42.579647 C 31.544092 44.122784 30.763316 46.107871 30.763316 48.531223 C 30.763316 50.939843 31.510946 52.910198 33.013571 54.431238 C 34.523563 55.952279 36.508649 56.71464 38.965148 56.71464 C 41.329573 56.71464 43.274148 55.94123 44.798871 54.398092 C 46.319911 52.840223 47.082273 50.880917 47.082273 48.512808 C 47.082273 46.100505 46.297814 44.122784 44.732579 42.579647 C 43.163661 41.032826 41.241184 40.263099 38.965148 40.263099 C 36.641234 40.263099 34.689294 41.032826 33.11301 42.579647 Z M 60.668513 65.999246 L 60.668513 7.271626 L 72.752128 7.271626 L 72.752128 65.999246 Z M 74.523606 65.999246 L 74.523606 7.271626 L 86.60722 7.271626 L 86.60722 65.999246 Z M 90.761538 61.664466 C 87.483752 58.088364 85.844859 53.702023 85.844859 48.512808 C 85.844859 43.323594 87.483752 38.93357 90.761538 35.342736 C 94.039325 31.744537 98.208374 29.943596 103.265004 29.943596 C 107.8981 29.943596 111.720957 31.398344 114.733574 34.311523 L 114.733574 30.97481 L 126.820871 30.97481 L 126.820871 65.999246 L 114.866158 65.999246 L 114.866158 62.032756 L 114.733574 62.032756 C 111.720957 65.354738 107.8981 67.015728 103.265004 67.015728 C 98.208374 67.015728 94.039325 65.233202 90.761538 61.664466 Z M 101.033163 42.579647 C 99.464245 44.122784 98.679786 46.107871 98.679786 48.531223 C 98.679786 50.939843 99.431099 52.910198 100.930042 54.431238 C 102.443716 55.952279 104.42512 56.71464 106.881618 56.71464 C 109.249727 56.71464 111.194301 55.94123 112.715341 54.398092 C 114.240064 52.840223 115.002426 50.880917 115.002426 48.512808 C 115.002426 46.100505 114.217967 44.122784 112.649049 42.579647 C 111.083814 41.032826 109.161337 40.263099 106.881618 40.263099 C 104.561387 40.263099 102.609447 41.032826 101.033163 42.579647 Z M 128.584983 65.999246 L 128.584983 30.97481 L 140.672281 30.97481 L 140.672281 34.661399 L 140.804866 34.661399 C 143.950067 31.516197 147.294146 29.943596 150.840785 29.943596 C 152.57175 29.943596 154.291668 30.171936 155.989487 30.624934 C 157.702039 31.081614 159.340932 31.788732 160.90985 32.742605 C 162.486134 33.70016 163.764102 35.05547 164.743755 36.812216 C 165.719725 38.565279 166.209552 40.605609 166.209552 42.929523 L 166.209552 65.999246 L 154.122254 65.999246 L 154.122254 46.19626 C 154.122254 44.373222 153.540355 42.785889 152.372874 41.426897 C 151.216441 40.060539 149.70645 39.379201 147.839216 39.379201 C 146.016178 39.379201 144.366236 40.082636 142.88939 41.496872 C 141.408862 42.907425 140.672281 44.47266 140.672281 46.19626 L 140.672281 65.999246 Z M 128.584983 65.999246 " stroke="#bfbfbf" stroke-width="5.12142" stroke-opacity="1" stroke-miterlimit="4"/><g fill="#ffffff" fill-opacity="1"><g transform="translate(106.214743, 207.121893)"><g><path d="M 6.875 -4.59375 C 3.40625 -8.382812 1.671875 -13.03125 1.671875 -18.53125 C 1.671875 -24.039062 3.40625 -28.703125 6.875 -32.515625 C 10.351562 -36.328125 14.773438 -38.234375 20.140625 -38.234375 C 25.054688 -38.234375 29.109375 -36.691406 32.296875 -33.609375 L 32.296875 -37.15625 L 45.125 -37.15625 L 45.125 0 L 32.4375 0 L 32.4375 -4.203125 L 32.296875 -4.203125 C 29.109375 -0.671875 25.054688 1.09375 20.140625 1.09375 C 14.773438 1.09375 10.351562 -0.800781 6.875 -4.59375 Z M 17.78125 -24.828125 C 16.113281 -23.191406 15.28125 -21.09375 15.28125 -18.53125 C 15.28125 -15.976562 16.078125 -13.890625 17.671875 -12.265625 C 19.265625 -10.648438 21.363281 -9.84375 23.96875 -9.84375 C 26.476562 -9.84375 28.539062 -10.664062 30.15625 -12.3125 C 31.78125 -13.957031 32.59375 -16.035156 32.59375 -18.546875 C 32.59375 -21.097656 31.757812 -23.191406 30.09375 -24.828125 C 28.425781 -26.472656 26.382812 -27.296875 23.96875 -27.296875 C 21.507812 -27.296875 19.445312 -26.472656 17.78125 -24.828125 Z M 17.78125 -24.828125 "/></g></g></g><g fill="#ffffff" fill-opacity="1"><g transform="translate(148.85962, 207.121893)"><g><path d="M 4.34375 0 L 4.34375 -62.28125 L 17.15625 -62.28125 L 17.15625 0 Z M 4.34375 0 "/></g></g></g><g fill="#ffffff" fill-opacity="1"><g transform="translate(163.555955, 207.121893)"><g><path d="M 4.34375 0 L 4.34375 -62.28125 L 17.15625 -62.28125 L 17.15625 0 Z M 4.34375 0 "/></g></g></g><g fill="#ffffff" fill-opacity="1"><g transform="translate(178.25229, 207.121893)"><g><path d="M 6.875 -4.59375 C 3.40625 -8.382812 1.671875 -13.03125 1.671875 -18.53125 C 1.671875 -24.039062 3.40625 -28.703125 6.875 -32.515625 C 10.351562 -36.328125 14.773438 -38.234375 20.140625 -38.234375 C 25.054688 -38.234375 29.109375 -36.691406 32.296875 -33.609375 L 32.296875 -37.15625 L 45.125 -37.15625 L 45.125 0 L 32.4375 0 L 32.4375 -4.203125 L 32.296875 -4.203125 C 29.109375 -0.671875 25.054688 1.09375 20.140625 1.09375 C 14.773438 1.09375 10.351562 -0.800781 6.875 -4.59375 Z M 17.78125 -24.828125 C 16.113281 -23.191406 15.28125 -21.09375 15.28125 -18.53125 C 15.28125 -15.976562 16.078125 -13.890625 17.671875 -12.265625 C 19.265625 -10.648438 21.363281 -9.84375 23.96875 -9.84375 C 26.476562 -9.84375 28.539062 -10.664062 30.15625 -12.3125 C 31.78125 -13.957031 32.59375 -16.035156 32.59375 -18.546875 C 32.59375 -21.097656 31.757812 -23.191406 30.09375 -24.828125 C 28.425781 -26.472656 26.382812 -27.296875 23.96875 -27.296875 C 21.507812 -27.296875 19.445312 -26.472656 17.78125 -24.828125 Z M 17.78125 -24.828125 "/></g></g></g><g fill="#ffffff" fill-opacity="1"><g transform="translate(220.897167, 207.121893)"><g><path d="M 4.34375 0 L 4.34375 -37.15625 L 17.15625 -37.15625 L 17.15625 -33.234375 L 17.3125 -33.234375 C 20.644531 -36.566406 24.191406 -38.234375 27.953125 -38.234375 C 29.785156 -38.234375 31.609375 -37.992188 33.421875 -37.515625 C 35.234375 -37.035156 36.972656 -36.285156 38.640625 -35.265625 C 40.304688 -34.253906 41.65625 -32.816406 42.6875 -30.953125 C 43.726562 -29.097656 44.25 -26.941406 44.25 -24.484375 L 44.25 0 L 31.4375 0 L 31.4375 -21 C 31.4375 -22.9375 30.816406 -24.628906 29.578125 -26.078125 C 28.347656 -27.523438 26.742188 -28.25 24.765625 -28.25 C 22.835938 -28.25 21.085938 -27.5 19.515625 -26 C 17.941406 -24.5 17.15625 -22.832031 17.15625 -21 L 17.15625 0 Z M 4.34375 0 "/></g></g></g><path stroke-linecap="butt" transform="matrix(1.060643, 0, 0, 1.060643, 134.004795, 211.895991)" fill="none" stroke-linejoin="miter" d="M 7.821655 12.557333 C 7.994751 12.741479 8.083141 12.947721 8.083141 13.176062 C 8.083141 13.404402 7.991068 13.599596 7.814289 13.754278 C 7.633826 13.90896 7.445998 13.986301 7.243438 13.986301 C 7.004049 13.986301 6.80149 13.894228 6.639442 13.710083 L 4.164529 11.102586 L 3.49424 11.717631 L 3.49424 13.16133 C 3.49424 13.400719 3.413216 13.599596 3.258534 13.761644 C 3.100169 13.920009 2.904975 14.001033 2.669269 14.001033 C 2.42988 14.001033 2.231003 13.920009 2.072638 13.761644 C 1.917956 13.599596 1.840615 13.400719 1.840615 13.16133 L 1.840615 4.672232 C 1.840615 4.432843 1.917956 4.233966 2.072638 4.075601 C 2.231003 3.913553 2.42988 3.832529 2.669269 3.832529 C 2.904975 3.832529 3.100169 3.913553 3.258534 4.075601 C 3.413216 4.233966 3.49424 4.432843 3.49424 4.672232 L 3.49424 9.754642 L 6.429516 6.907756 C 6.606296 6.734659 6.805173 6.649952 7.033513 6.649952 C 7.239755 6.649952 7.420218 6.734659 7.578583 6.904073 C 7.740631 7.073486 7.821655 7.2429 7.821655 7.41968 C 7.821655 7.636971 7.711167 7.843214 7.490193 8.034725 L 5.413034 9.946153 Z M 20.034171 13.16133 C 20.034171 13.400719 19.953147 13.599596 19.798465 13.761644 C 19.643783 13.920009 19.448589 14.001033 19.2092 14.001033 C 18.969811 14.001033 18.774617 13.920009 18.616252 13.761644 C 18.46157 13.599596 18.384229 13.400719 18.384229 13.16133 L 18.384229 7.485972 C 18.384229 7.250266 18.46157 7.051389 18.616252 6.893024 C 18.774617 6.730976 18.969811 6.649952 19.2092 6.649952 C 19.448589 6.649952 19.643783 6.730976 19.798465 6.893024 C 19.953147 7.051389 20.034171 7.250266 20.034171 7.485972 Z M 19.194468 5.755006 C 18.885104 5.755006 18.66413 5.703445 18.535228 5.604007 C 18.406327 5.504568 18.343717 5.324106 18.343717 5.069985 L 18.343717 4.808499 C 18.343717 4.550696 18.410009 4.373916 18.546277 4.270795 C 18.686227 4.171356 18.907202 4.119796 19.2092 4.119796 C 19.529613 4.119796 19.75427 4.171356 19.883172 4.270795 C 20.008391 4.373916 20.074683 4.550696 20.074683 4.808499 L 20.074683 5.069985 C 20.074683 5.335155 20.004708 5.515617 19.872123 5.611373 C 19.739539 5.707128 19.514881 5.755006 19.194468 5.755006 Z M 30.254235 12.859332 C 30.173211 12.748845 30.132699 12.612577 30.132699 12.446846 C 30.132699 12.21114 30.250552 12.00858 30.489941 11.84285 C 30.618843 11.761826 30.751428 11.717631 30.887695 11.717631 C 31.082889 11.717631 31.267034 11.806021 31.440131 11.979117 C 31.712666 12.266384 31.99625 12.47631 32.294565 12.61626 C 32.592881 12.752527 32.953805 12.81882 33.373657 12.81882 C 34.091823 12.789357 34.449065 12.520504 34.449065 12.00858 C 34.449065 11.739728 34.327529 11.540851 34.084458 11.404584 C 33.837703 11.264633 33.462047 11.128366 32.950123 10.992098 C 32.419784 10.844782 31.985201 10.697466 31.650057 10.55015 C 31.318595 10.402833 31.027646 10.181859 30.784574 9.883544 C 30.541502 9.585228 30.419966 9.187474 30.419966 8.682916 C 30.419966 8.240968 30.545185 7.861628 30.799305 7.537532 C 31.053426 7.209754 31.381205 6.959316 31.790007 6.782537 C 32.195127 6.602074 32.62971 6.513685 33.08639 6.513685 C 33.554119 6.513685 34.021848 6.598391 34.489577 6.775171 C 34.957306 6.948268 35.321914 7.202388 35.590766 7.541215 C 35.708619 7.688532 35.767546 7.85058 35.767546 8.034725 C 35.767546 8.248333 35.679156 8.42143 35.506059 8.557697 C 35.377158 8.660819 35.229841 8.708697 35.064111 8.708697 C 34.865234 8.708697 34.699503 8.646087 34.570601 8.517186 C 34.40487 8.318309 34.194945 8.156261 33.933458 8.038408 C 33.671972 7.916872 33.373657 7.857945 33.045878 7.857945 C 32.349809 7.857945 31.999933 8.108383 31.999933 8.612941 C 31.999933 8.815501 32.062542 8.977549 32.191444 9.102768 C 32.320346 9.224303 32.482393 9.320059 32.68127 9.390034 C 32.876464 9.460009 33.156365 9.544716 33.513607 9.644155 C 34.007117 9.784105 34.419602 9.924056 34.747381 10.071372 C 35.078842 10.218688 35.358743 10.439662 35.587083 10.741661 C 35.815423 11.043659 35.929594 11.445096 35.929594 11.938605 C 35.929594 12.38792 35.797009 12.778308 35.53184 13.113452 C 35.26667 13.448597 34.92416 13.702717 34.507992 13.875814 C 34.091823 14.04891 33.664606 14.1373 33.222658 14.1373 C 32.618661 14.1373 32.055176 14.037862 31.532204 13.835302 C 31.012914 13.632742 30.585697 13.308646 30.254235 12.859332 Z M 51.714529 6.649952 C 51.953918 6.649952 52.152795 6.730976 52.307477 6.893024 C 52.462159 7.051389 52.543183 7.250266 52.543183 7.485972 L 52.543183 10.977367 C 52.543183 11.964386 52.266965 12.741479 51.721895 13.297598 C 51.180507 13.857399 50.403414 14.1373 49.394298 14.1373 C 48.388865 14.1373 47.615454 13.857399 47.074067 13.297598 C 46.53268 12.741479 46.260145 11.964386 46.260145 10.977367 L 46.260145 7.485972 C 46.260145 7.250266 46.341169 7.051389 46.495851 6.893024 C 46.654216 6.730976 46.84941 6.649952 47.088799 6.649952 C 47.324505 6.649952 47.519699 6.730976 47.678064 6.893024 C 47.832746 7.051389 47.91377 7.250266 47.91377 7.485972 L 47.91377 10.977367 C 47.91377 11.537168 48.035306 11.953337 48.28206 12.222189 C 48.528815 12.491041 48.900789 12.623626 49.394298 12.623626 C 49.898856 12.623626 50.274513 12.491041 50.521267 12.222189 C 50.771705 11.953337 50.893241 11.537168 50.893241 10.977367 L 50.893241 7.485972 C 50.893241 7.250266 50.970582 7.051389 51.125264 6.893024 C 51.283629 6.730976 51.478823 6.649952 51.714529 6.649952 Z M 68.736921 6.649952 C 68.97631 6.649952 69.175186 6.730976 69.329868 6.893024 C 69.484551 7.051389 69.565574 7.250266 69.565574 7.485972 L 69.565574 10.977367 C 69.565574 11.964386 69.289357 12.741479 68.744286 13.297598 C 68.202899 13.857399 67.425806 14.1373 66.41669 14.1373 C 65.411256 14.1373 64.637846 13.857399 64.096459 13.297598 C 63.555072 12.741479 63.282537 11.964386 63.282537 10.977367 L 63.282537 7.485972 C 63.282537 7.250266 63.363561 7.051389 63.518243 6.893024 C 63.676608 6.730976 63.871802 6.649952 64.111191 6.649952 C 64.346897 6.649952 64.542091 6.730976 64.700456 6.893024 C 64.855138 7.051389 64.936162 7.250266 64.936162 7.485972 L 64.936162 10.977367 C 64.936162 11.537168 65.057697 11.953337 65.304452 12.222189 C 65.551207 12.491041 65.92318 12.623626 66.41669 12.623626 C 66.921248 12.623626 67.296904 12.491041 67.543659 12.222189 C 67.794097 11.953337 67.915633 11.537168 67.915633 10.977367 L 67.915633 7.485972 C 67.915633 7.250266 67.992974 7.051389 68.147656 6.893024 C 68.306021 6.730976 68.501215 6.649952 68.736921 6.649952 Z M 82.094821 13.16133 C 82.094821 13.400719 82.013797 13.599596 81.851749 13.761644 C 81.693384 13.920009 81.494507 14.001033 81.255118 14.001033 C 81.026778 14.001033 80.831584 13.920009 80.676902 13.761644 C 80.52222 13.599596 80.444879 13.400719 80.444879 13.16133 L 80.444879 4.672232 C 80.444879 4.432843 80.525903 4.233966 80.684268 4.075601 C 80.846316 3.913553 81.045193 3.832529 81.280899 3.832529 C 81.509239 3.832529 81.704433 3.913553 81.859115 4.075601 C 82.01748 4.233966 82.094821 4.432843 82.094821 4.672232 Z M 99.57021 10.152396 C 99.562844 10.37337 99.474454 10.55015 99.308724 10.6901 C 99.146676 10.826368 98.951482 10.89266 98.730507 10.89266 L 94.200533 10.89266 C 94.307337 11.434047 94.561458 11.857581 94.955529 12.163262 C 95.3496 12.472627 95.791548 12.623626 96.285058 12.623626 C 96.660714 12.623626 96.955347 12.59048 97.165272 12.524187 C 97.378881 12.454212 97.544612 12.380554 97.669831 12.303213 C 97.791366 12.225872 97.876073 12.170628 97.923951 12.144848 C 98.089682 12.063824 98.244364 12.019629 98.387997 12.019629 C 98.583191 12.019629 98.745239 12.089604 98.881507 12.229555 C 99.021457 12.365822 99.091432 12.524187 99.091432 12.708333 C 99.091432 12.955087 98.962531 13.179745 98.704727 13.382304 C 98.450607 13.59223 98.108096 13.772692 97.673513 13.920009 C 97.246296 14.063642 96.811713 14.1373 96.369765 14.1373 C 95.600037 14.1373 94.929748 13.978935 94.358898 13.658522 C 93.784365 13.334427 93.342416 12.892478 93.029369 12.328993 C 92.716322 11.765509 92.56164 11.132049 92.56164 10.428614 C 92.56164 9.640472 92.727371 8.948086 93.055149 8.355138 C 93.386611 7.758507 93.821194 7.301827 94.362581 6.985097 C 94.903968 6.67205 95.482184 6.513685 96.093547 6.513685 C 96.697543 6.513685 97.268394 6.679415 97.806098 7.010877 C 98.343802 7.338656 98.771019 7.780604 99.091432 8.340406 C 99.411845 8.896525 99.57021 9.500521 99.57021 10.152396 Z M 96.093547 8.023676 C 95.03287 8.023676 94.406776 8.520868 94.211582 9.522619 L 97.813464 9.522619 L 97.813464 9.42318 C 97.776635 9.040158 97.588807 8.708697 97.249979 8.436162 C 96.911152 8.159944 96.52813 8.023676 96.093547 8.023676 Z M 96.093547 8.023676 " stroke="#bfbfbf" stroke-width="1.03071" stroke-opacity="1" stroke-miterlimit="4"/><g fill="#ffffff" fill-opacity="1"><g transform="translate(134.866568, 226.744999)"><g><path d="M 7.4375 -1.53125 C 7.625 -1.332031 7.71875 -1.113281 7.71875 -0.875 C 7.71875 -0.632812 7.617188 -0.429688 7.421875 -0.265625 C 7.234375 -0.0976562 7.035156 -0.015625 6.828125 -0.015625 C 6.566406 -0.015625 6.351562 -0.113281 6.1875 -0.3125 L 3.5625 -3.078125 L 2.84375 -2.421875 L 2.84375 -0.890625 C 2.84375 -0.640625 2.757812 -0.425781 2.59375 -0.25 C 2.425781 -0.0820312 2.21875 0 1.96875 0 C 1.71875 0 1.507812 -0.0820312 1.34375 -0.25 C 1.175781 -0.425781 1.09375 -0.640625 1.09375 -0.890625 L 1.09375 -9.90625 C 1.09375 -10.15625 1.175781 -10.363281 1.34375 -10.53125 C 1.507812 -10.695312 1.71875 -10.78125 1.96875 -10.78125 C 2.21875 -10.78125 2.425781 -10.695312 2.59375 -10.53125 C 2.757812 -10.363281 2.84375 -10.15625 2.84375 -9.90625 L 2.84375 -4.5 L 5.96875 -7.515625 C 6.144531 -7.703125 6.359375 -7.796875 6.609375 -7.796875 C 6.816406 -7.796875 7.003906 -7.707031 7.171875 -7.53125 C 7.347656 -7.351562 7.4375 -7.171875 7.4375 -6.984375 C 7.4375 -6.753906 7.316406 -6.535156 7.078125 -6.328125 L 4.890625 -4.296875 Z M 7.4375 -1.53125 "/></g></g></g><g fill="#ffffff" fill-opacity="1"><g transform="translate(152.659008, 226.744999)"><g><path d="M 2.59375 -0.890625 C 2.59375 -0.640625 2.507812 -0.425781 2.34375 -0.25 C 2.175781 -0.0820312 1.96875 0 1.71875 0 C 1.46875 0 1.257812 -0.0820312 1.09375 -0.25 C 0.925781 -0.425781 0.84375 -0.640625 0.84375 -0.890625 L 0.84375 -6.90625 C 0.84375 -7.15625 0.925781 -7.363281 1.09375 -7.53125 C 1.257812 -7.707031 1.46875 -7.796875 1.71875 -7.796875 C 1.96875 -7.796875 2.175781 -7.707031 2.34375 -7.53125 C 2.507812 -7.363281 2.59375 -7.15625 2.59375 -6.90625 Z M 1.71875 -8.75 C 1.382812 -8.75 1.148438 -8.800781 1.015625 -8.90625 C 0.878906 -9.007812 0.8125 -9.195312 0.8125 -9.46875 L 0.8125 -9.75 C 0.8125 -10.019531 0.882812 -10.207031 1.03125 -10.3125 C 1.175781 -10.425781 1.410156 -10.484375 1.734375 -10.484375 C 2.066406 -10.484375 2.300781 -10.425781 2.4375 -10.3125 C 2.570312 -10.207031 2.640625 -10.019531 2.640625 -9.75 L 2.640625 -9.46875 C 2.640625 -9.1875 2.566406 -8.992188 2.421875 -8.890625 C 2.285156 -8.796875 2.050781 -8.75 1.71875 -8.75 Z M 1.71875 -8.75 "/></g></g></g><g fill="#ffffff" fill-opacity="1"><g transform="translate(165.600562, 226.744999)"><g><path d="M 0.5 -1.203125 C 0.40625 -1.328125 0.359375 -1.472656 0.359375 -1.640625 C 0.359375 -1.898438 0.488281 -2.113281 0.75 -2.28125 C 0.882812 -2.375 1.023438 -2.421875 1.171875 -2.421875 C 1.367188 -2.421875 1.5625 -2.328125 1.75 -2.140625 C 2.039062 -1.835938 2.34375 -1.613281 2.65625 -1.46875 C 2.976562 -1.320312 3.363281 -1.25 3.8125 -1.25 C 4.5625 -1.28125 4.9375 -1.566406 4.9375 -2.109375 C 4.9375 -2.390625 4.804688 -2.601562 4.546875 -2.75 C 4.296875 -2.894531 3.898438 -3.039062 3.359375 -3.1875 C 2.785156 -3.34375 2.320312 -3.5 1.96875 -3.65625 C 1.613281 -3.8125 1.304688 -4.046875 1.046875 -4.359375 C 0.796875 -4.679688 0.671875 -5.109375 0.671875 -5.640625 C 0.671875 -6.109375 0.800781 -6.515625 1.0625 -6.859375 C 1.332031 -7.203125 1.679688 -7.46875 2.109375 -7.65625 C 2.546875 -7.84375 3.007812 -7.9375 3.5 -7.9375 C 4 -7.9375 4.492188 -7.84375 4.984375 -7.65625 C 5.484375 -7.476562 5.875 -7.210938 6.15625 -6.859375 C 6.28125 -6.703125 6.34375 -6.523438 6.34375 -6.328125 C 6.34375 -6.097656 6.25 -5.910156 6.0625 -5.765625 C 5.925781 -5.660156 5.769531 -5.609375 5.59375 -5.609375 C 5.382812 -5.609375 5.210938 -5.675781 5.078125 -5.8125 C 4.898438 -6.03125 4.671875 -6.203125 4.390625 -6.328125 C 4.117188 -6.453125 3.804688 -6.515625 3.453125 -6.515625 C 2.710938 -6.515625 2.34375 -6.25 2.34375 -5.71875 C 2.34375 -5.5 2.410156 -5.320312 2.546875 -5.1875 C 2.679688 -5.0625 2.851562 -4.960938 3.0625 -4.890625 C 3.269531 -4.816406 3.566406 -4.726562 3.953125 -4.625 C 4.472656 -4.476562 4.90625 -4.328125 5.25 -4.171875 C 5.601562 -4.015625 5.898438 -3.773438 6.140625 -3.453125 C 6.390625 -3.128906 6.515625 -2.707031 6.515625 -2.1875 C 6.515625 -1.707031 6.375 -1.289062 6.09375 -0.9375 C 5.8125 -0.582031 5.445312 -0.3125 5 -0.125 C 4.5625 0.0507812 4.109375 0.140625 3.640625 0.140625 C 3.003906 0.140625 2.40625 0.0351562 1.84375 -0.171875 C 1.289062 -0.390625 0.84375 -0.734375 0.5 -1.203125 Z M 0.5 -1.203125 "/></g></g></g><g fill="#ffffff" fill-opacity="1"><g transform="translate(182.125655, 226.744999)"><g><path d="M 6.734375 -7.796875 C 6.984375 -7.796875 7.191406 -7.707031 7.359375 -7.53125 C 7.523438 -7.363281 7.609375 -7.15625 7.609375 -6.90625 L 7.609375 -3.203125 C 7.609375 -2.148438 7.316406 -1.328125 6.734375 -0.734375 C 6.160156 -0.148438 5.335938 0.140625 4.265625 0.140625 C 3.203125 0.140625 2.382812 -0.148438 1.8125 -0.734375 C 1.238281 -1.328125 0.953125 -2.148438 0.953125 -3.203125 L 0.953125 -6.90625 C 0.953125 -7.15625 1.03125 -7.363281 1.1875 -7.53125 C 1.351562 -7.707031 1.566406 -7.796875 1.828125 -7.796875 C 2.078125 -7.796875 2.285156 -7.707031 2.453125 -7.53125 C 2.617188 -7.363281 2.703125 -7.15625 2.703125 -6.90625 L 2.703125 -3.203125 C 2.703125 -2.609375 2.832031 -2.164062 3.09375 -1.875 C 3.351562 -1.59375 3.742188 -1.453125 4.265625 -1.453125 C 4.804688 -1.453125 5.207031 -1.59375 5.46875 -1.875 C 5.726562 -2.164062 5.859375 -2.609375 5.859375 -3.203125 L 5.859375 -6.90625 C 5.859375 -7.15625 5.941406 -7.363281 6.109375 -7.53125 C 6.273438 -7.707031 6.484375 -7.796875 6.734375 -7.796875 Z M 6.734375 -7.796875 "/></g></g></g><g fill="#ffffff" fill-opacity="1"><g transform="translate(200.180311, 226.744999)"><g><path d="M 6.734375 -7.796875 C 6.984375 -7.796875 7.191406 -7.707031 7.359375 -7.53125 C 7.523438 -7.363281 7.609375 -7.15625 7.609375 -6.90625 L 7.609375 -3.203125 C 7.609375 -2.148438 7.316406 -1.328125 6.734375 -0.734375 C 6.160156 -0.148438 5.335938 0.140625 4.265625 0.140625 C 3.203125 0.140625 2.382812 -0.148438 1.8125 -0.734375 C 1.238281 -1.328125 0.953125 -2.148438 0.953125 -3.203125 L 0.953125 -6.90625 C 0.953125 -7.15625 1.03125 -7.363281 1.1875 -7.53125 C 1.351562 -7.707031 1.566406 -7.796875 1.828125 -7.796875 C 2.078125 -7.796875 2.285156 -7.707031 2.453125 -7.53125 C 2.617188 -7.363281 2.703125 -7.15625 2.703125 -6.90625 L 2.703125 -3.203125 C 2.703125 -2.609375 2.832031 -2.164062 3.09375 -1.875 C 3.351562 -1.59375 3.742188 -1.453125 4.265625 -1.453125 C 4.804688 -1.453125 5.207031 -1.59375 5.46875 -1.875 C 5.726562 -2.164062 5.859375 -2.609375 5.859375 -3.203125 L 5.859375 -6.90625 C 5.859375 -7.15625 5.941406 -7.363281 6.109375 -7.53125 C 6.273438 -7.707031 6.484375 -7.796875 6.734375 -7.796875 Z M 6.734375 -7.796875 "/></g></g></g><g fill="#ffffff" fill-opacity="1"><g transform="translate(218.234967, 226.744999)"><g><path d="M 2.84375 -0.890625 C 2.84375 -0.640625 2.753906 -0.425781 2.578125 -0.25 C 2.410156 -0.0820312 2.203125 0 1.953125 0 C 1.710938 0 1.507812 -0.0820312 1.34375 -0.25 C 1.175781 -0.425781 1.09375 -0.640625 1.09375 -0.890625 L 1.09375 -9.90625 C 1.09375 -10.15625 1.175781 -10.363281 1.34375 -10.53125 C 1.519531 -10.695312 1.734375 -10.78125 1.984375 -10.78125 C 2.222656 -10.78125 2.425781 -10.695312 2.59375 -10.53125 C 2.757812 -10.363281 2.84375 -10.15625 2.84375 -9.90625 Z M 2.84375 -0.890625 "/></g></g></g><g fill="#ffffff" fill-opacity="1"><g transform="translate(231.671804, 226.744999)"><g><path d="M 7.9375 -4.078125 C 7.9375 -3.847656 7.847656 -3.660156 7.671875 -3.515625 C 7.492188 -3.367188 7.289062 -3.296875 7.0625 -3.296875 L 2.25 -3.296875 C 2.363281 -2.722656 2.628906 -2.269531 3.046875 -1.9375 C 3.460938 -1.613281 3.929688 -1.453125 4.453125 -1.453125 C 4.859375 -1.453125 5.171875 -1.488281 5.390625 -1.5625 C 5.617188 -1.632812 5.796875 -1.710938 5.921875 -1.796875 C 6.054688 -1.878906 6.148438 -1.9375 6.203125 -1.96875 C 6.367188 -2.050781 6.53125 -2.09375 6.6875 -2.09375 C 6.894531 -2.09375 7.070312 -2.019531 7.21875 -1.875 C 7.363281 -1.726562 7.4375 -1.5625 7.4375 -1.375 C 7.4375 -1.113281 7.300781 -0.875 7.03125 -0.65625 C 6.757812 -0.4375 6.394531 -0.25 5.9375 -0.09375 C 5.476562 0.0625 5.015625 0.140625 4.546875 0.140625 C 3.734375 0.140625 3.019531 -0.0234375 2.40625 -0.359375 C 1.800781 -0.703125 1.332031 -1.171875 1 -1.765625 C 0.675781 -2.367188 0.515625 -3.046875 0.515625 -3.796875 C 0.515625 -4.628906 0.6875 -5.359375 1.03125 -5.984375 C 1.382812 -6.617188 1.847656 -7.101562 2.421875 -7.4375 C 2.992188 -7.769531 3.601562 -7.9375 4.25 -7.9375 C 4.894531 -7.9375 5.5 -7.757812 6.0625 -7.40625 C 6.632812 -7.0625 7.085938 -6.59375 7.421875 -6 C 7.765625 -5.40625 7.9375 -4.765625 7.9375 -4.078125 Z M 4.25 -6.34375 C 3.125 -6.34375 2.460938 -5.8125 2.265625 -4.75 L 6.078125 -4.75 L 6.078125 -4.859375 C 6.035156 -5.265625 5.832031 -5.613281 5.46875 -5.90625 C 5.113281 -6.195312 4.707031 -6.34375 4.25 -6.34375 Z M 4.25 -6.34375 "/></g></g></g></svg>